# xmcd
#
# Track frame offsets:
#	150
#	12647
#	24842
#	36587
#	46832
#	57752
#	68972
#	81542
#	94412
#	103682
#	114827
#	124397
#	136892
#	147737
#	161582
#	171002
#	183197
#	192992
#	202937
#	212282
#	223952
#	233297
#	246542
#	257837
#	267932
#
# Disc length: 3735 seconds
#
# Revision: 1
# Processed by: cddbd v1.5.2PL0 Copyright (c) Steve Scherf et al.
# Submitted via: audiograbber 1.83.01
#
DISCID=720e9519
DTITLE=Various Artist - Country  Western CD 21
DYEAR=1956
DGENRE=Country
TTITLE0=Tex Ritter - The Wayward Wind
TTITLE1=Jim Reeves - Am I Losing You
TTITLE2=The Browns - Just As Long As You Love Me
TTITLE3=The Wilburn Brothers - I'm So In Love With You
TTITLE4=Portner Wagoner - What Would You Do (If Jesus Came To You House)
TTITLE5=Ray Price - Wasted Words
TTITLE6=Tennessee Ernie Ford - That's All
TTITLE7=Hank Snow - Memories Are Made Of This
TTITLE8=Sonny James - Twenty Feet Of Muddy Warter
TTITLE9=Red Foley - The Hoot Owl Boogie
TTITLE10=Jim Reeves - Tweedle O'Twill
TTITLE11=Kitty Wells - The Lonely Side Of Town
TTITLE12=Portner Wagoner - Uncle Pen
TTITLE13=Marty Robbins - Respectfully Miss Brooks
TTITLE14=Faron Young - It's A Great Life (If You Don't Weaken)
TTITLE15=Eddy Arnold - Trouble In Mind
TTITLE16=Red Sovine - Hold Everyting (Till I Get Home)
TTITLE17=Wilburn Brothers - Go Away With Me
TTITLE18=Wilma Lee Cooper and Stoney Cooper - Cheated Too
TTITLE19=Hank Snow - Born To Lose
TTITLE20=Webb Pierce - 'Couse I Love You
TTITLE21=Kitty Wells - How Far Heaven
TTITLE22=Portner Wagoner - Tryin' To Forget The Blues
TTITLE23=Carl Smith - Before I Met You
TTITLE24=Eddy Arnold - Casey Jones (The Brave Engineer) 
EXTD=
EXTT0=
EXTT1=
EXTT2=
EXTT3=
EXTT4=
EXTT5=
EXTT6=
EXTT7=
EXTT8=
EXTT9=
EXTT10=
EXTT11=
EXTT12=
EXTT13=
EXTT14=
EXTT15=
EXTT16=
EXTT17=
EXTT18=
EXTT19=
EXTT20=
EXTT21=
EXTT22=
EXTT23=
EXTT24=
PLAYORDER=
